<?xml version="1.0" encoding="UTF-8" standalone="no"?>
<!DOCTYPE svg PUBLIC "-//W3C//DTD SVG 1.1//EN" "http://www.w3.org/Graphics/SVG/1.1/DTD/svg11.dtd">
<svg width="100%" height="100%" viewBox="0 0 3012 3012" version="1.1" xmlns="http://www.w3.org/2000/svg" xmlns:xlink="http://www.w3.org/1999/xlink" xml:space="preserve" xmlns:serif="http://www.serif.com/" style="fill-rule:evenodd;clip-rule:evenodd;stroke-linejoin:round;stroke-miterlimit:2;">
    <rect id="Artboard1" x="0" y="0" width="3011.81" height="3011.81" style="fill:none;"/>
    <g id="Artboard11" serif:id="Artboard1">
        <g transform="matrix(0.89447,0,0,0.89447,136.163,560.347)">
            <path d="M706.064,2536.57L706.064,2478.57L864.943,2263.2L706.064,2263.2L706.064,2200.16L958.756,2200.16L958.756,2257.66L799.881,2473.52L962.281,2473.52L962.281,2536.57L706.064,2536.57ZM1576.06,2368.62C1576.06,2267.24 1650.21,2194.61 1752.09,2194.61C1853.46,2194.61 1927.61,2267.24 1927.61,2368.62C1927.61,2469.99 1853.46,2542.62 1752.09,2542.62C1650.21,2542.62 1576.06,2469.99 1576.06,2368.62ZM1853.97,2368.62C1853.97,2305.57 1814.12,2258.16 1752.09,2258.16C1689.54,2258.16 1649.7,2305.57 1649.7,2368.62C1649.7,2431.16 1689.54,2479.07 1752.09,2479.07C1814.12,2479.07 1853.97,2431.16 1853.97,2368.62ZM2011.13,2368.62C2011.13,2262.2 2091.83,2194.61 2190.69,2194.61C2260.29,2194.61 2304.17,2229.91 2329.39,2269.76L2270.38,2302.04C2254.74,2278.33 2225.99,2258.16 2190.69,2258.16C2129.16,2258.16 2084.77,2305.07 2084.77,2368.62C2084.77,2432.17 2129.16,2479.07 2190.69,2479.07C2238.61,2479.07 2267.35,2448.3 2277.94,2413L2173.03,2413L2173.03,2349.95L2356.63,2349.95C2356.63,2469.99 2291.56,2542.62 2184.13,2542.62C2091.83,2542.62 2011.13,2474.53 2011.13,2368.62ZM999.041,2333.82L1233.57,2333.82L1233.57,2396.86L1070.66,2396.86L1070.66,2473.52L1237.1,2473.52L1237.1,2536.57L999.041,2536.57L999.041,2333.82ZM1237.1,2263.2L999.041,2263.2L999.041,2200.16L1237.1,2200.16L1237.1,2263.2ZM1478.67,2408.46L1554.83,2536.57L1472.12,2536.57L1406.04,2417.04L1371.19,2353.99L1429.24,2353.99C1457.49,2353.99 1479.17,2336.85 1479.17,2308.09C1479.17,2280.35 1457.49,2263.2 1429.24,2263.2L1353.59,2263.2L1353.59,2536.57L1281.97,2536.57L1281.97,2200.16L1439.33,2200.16C1509.44,2200.16 1552.81,2246.05 1552.81,2308.6C1552.81,2367.61 1514.99,2399.89 1478.67,2408.46Z" style="fill:rgb(181,181,181);"/>
        </g>
    </g>
</svg>
